<svg width="302" height="66" viewBox="0 0 302 66" fill="none" xmlns="http://www.w3.org/2000/svg">
<path fill-rule="evenodd" clip-rule="evenodd" d="M67.239 43.5812H11.8093C10.8066 43.5812 10 44.3471 10 45.2869C10 46.2341 10.8103 47 11.8093 47H67.239C68.2417 47 69.052 46.2341 69.052 45.2869C69.052 44.3471 68.238 43.5812 67.239 43.5812Z" fill="black"/>
<path fill-rule="evenodd" clip-rule="evenodd" d="M39.5483 14.4437C25.344 14.4437 13.8333 25.5733 13.8333 39.3003H65.2633C65.267 25.5733 53.7489 14.4437 39.5483 14.4437Z" fill="#00993E"/>
<path fill-rule="evenodd" clip-rule="evenodd" d="M35.8964 10H43.1817V17.2853H35.8964V10Z" fill="black"/>
<path d="M83.252 47V19.2H96.892V22.16L86.612 22.04L86.372 31.48L95.652 31.44V34.28H86.412L86.572 47H83.252ZM109.791 47.52C107.577 47.52 105.831 47.0267 104.551 46.04C103.297 45.0533 102.404 43.6533 101.871 41.84C101.337 40.0267 101.071 37.8667 101.071 35.36C101.071 32.8533 101.337 30.6933 101.871 28.88C102.404 27.0667 103.297 25.6667 104.551 24.68C105.831 23.6933 107.577 23.2 109.791 23.2C112.004 23.2 113.737 23.6933 114.991 24.68C116.271 25.6667 117.177 27.0667 117.711 28.88C118.244 30.6933 118.511 32.8533 118.511 35.36C118.511 37.8667 118.244 40.0267 117.711 41.84C117.177 43.6533 116.271 45.0533 114.991 46.04C113.737 47.0267 112.004 47.52 109.791 47.52ZM109.791 44.64C110.804 44.64 111.644 44.52 112.311 44.28C113.004 44.04 113.551 43.6 113.951 42.96C114.377 42.32 114.671 41.3867 114.831 40.16C115.017 38.9333 115.111 37.3333 115.111 35.36C115.111 33.3867 115.017 31.7867 114.831 30.56C114.671 29.3333 114.377 28.4 113.951 27.76C113.551 27.0933 113.004 26.6533 112.311 26.44C111.644 26.2 110.804 26.08 109.791 26.08C108.777 26.08 107.924 26.2 107.231 26.44C106.564 26.6533 106.017 27.0933 105.591 27.76C105.191 28.4 104.897 29.3333 104.711 30.56C104.524 31.7867 104.431 33.3867 104.431 35.36C104.431 37.3333 104.524 38.9333 104.711 40.16C104.897 41.3867 105.191 42.32 105.591 42.96C106.017 43.6 106.564 44.04 107.231 44.28C107.924 44.52 108.777 44.64 109.791 44.64ZM132.838 47.52C130.624 47.52 128.878 47.0267 127.598 46.04C126.344 45.0533 125.451 43.6533 124.918 41.84C124.384 40.0267 124.118 37.8667 124.118 35.36C124.118 32.8533 124.384 30.6933 124.918 28.88C125.451 27.0667 126.344 25.6667 127.598 24.68C128.878 23.6933 130.624 23.2 132.838 23.2C135.051 23.2 136.784 23.6933 138.038 24.68C139.318 25.6667 140.224 27.0667 140.758 28.88C141.291 30.6933 141.558 32.8533 141.558 35.36C141.558 37.8667 141.291 40.0267 140.758 41.84C140.224 43.6533 139.318 45.0533 138.038 46.04C136.784 47.0267 135.051 47.52 132.838 47.52ZM132.838 44.64C133.851 44.64 134.691 44.52 135.358 44.28C136.051 44.04 136.598 43.6 136.998 42.96C137.424 42.32 137.718 41.3867 137.878 40.16C138.064 38.9333 138.158 37.3333 138.158 35.36C138.158 33.3867 138.064 31.7867 137.878 30.56C137.718 29.3333 137.424 28.4 136.998 27.76C136.598 27.0933 136.051 26.6533 135.358 26.44C134.691 26.2 133.851 26.08 132.838 26.08C131.824 26.08 130.971 26.2 130.278 26.44C129.611 26.6533 129.064 27.0933 128.638 27.76C128.238 28.4 127.944 29.3333 127.758 30.56C127.571 31.7867 127.478 33.3867 127.478 35.36C127.478 37.3333 127.571 38.9333 127.758 40.16C127.944 41.3867 128.238 42.32 128.638 42.96C129.064 43.6 129.611 44.04 130.278 44.28C130.971 44.52 131.824 44.64 132.838 44.64ZM154.525 47.52C152.338 47.52 150.565 46.5733 149.205 44.68C147.845 42.7867 147.165 39.8267 147.165 35.8C147.165 33.2133 147.391 31.1067 147.845 29.48C148.325 27.8267 148.965 26.5467 149.765 25.64C150.565 24.7333 151.445 24.1067 152.405 23.76C153.391 23.3867 154.405 23.2 155.445 23.2C156.751 23.2 157.845 23.3067 158.725 23.52C159.605 23.7333 160.258 23.9333 160.685 24.12V16.88H164.005V47H161.805L161.365 44.6H161.165C160.818 44.8667 160.338 45.24 159.725 45.72C159.111 46.1733 158.365 46.5867 157.485 46.96C156.631 47.3333 155.645 47.52 154.525 47.52ZM154.725 44.56C155.418 44.56 156.151 44.44 156.925 44.2C157.698 43.96 158.418 43.68 159.085 43.36C159.751 43.0133 160.285 42.72 160.685 42.48V27.2C160.205 27.0133 159.445 26.8 158.405 26.56C157.391 26.2933 156.298 26.16 155.125 26.16C153.631 26.16 152.618 26.48 152.085 27.12C151.871 27.4133 151.645 27.88 151.405 28.52C151.191 29.16 151.005 30.08 150.845 31.28C150.711 32.4533 150.645 34.0133 150.645 35.96C150.645 38.1467 150.751 39.8 150.965 40.92C151.205 42.04 151.471 42.8133 151.765 43.24C152.058 43.6667 152.285 43.9467 152.445 44.08C152.658 44.2667 152.965 44.4 153.365 44.48C153.765 44.5333 154.218 44.56 154.725 44.56Z" fill="#7EB685"/>
<path d="M187.056 47.56C185.963 47.56 184.909 47.4267 183.896 47.16C182.883 46.92 181.976 46.6267 181.176 46.28C180.403 45.9333 179.789 45.64 179.336 45.4C178.883 45.1333 178.656 45 178.656 45C178.656 45 178.709 44.8667 178.816 44.6C178.949 44.3067 179.096 43.9867 179.256 43.64C179.416 43.2667 179.549 42.9467 179.656 42.68C179.789 42.4133 179.856 42.28 179.856 42.28C179.856 42.28 180.069 42.4 180.496 42.64C180.949 42.8533 181.549 43.1067 182.296 43.4C183.043 43.6667 183.896 43.92 184.856 44.16C185.816 44.3733 186.816 44.48 187.856 44.48C188.523 44.48 189.043 44.4267 189.416 44.32C189.816 44.1867 190.096 44.0667 190.256 43.96C190.789 43.5867 191.203 43.08 191.496 42.44C191.789 41.7733 191.936 40.92 191.936 39.88C191.936 38.8667 191.723 38.0267 191.296 37.36C190.869 36.6933 190.296 36.1333 189.576 35.68C188.883 35.2267 188.123 34.8267 187.296 34.48C186.229 34.0267 185.229 33.5733 184.296 33.12C183.363 32.6667 182.536 32.1467 181.816 31.56C181.096 30.9733 180.536 30.24 180.136 29.36C179.736 28.4533 179.536 27.3333 179.536 26C179.536 24.6133 179.843 23.3733 180.456 22.28C181.069 21.16 181.989 20.28 183.216 19.64C184.443 18.9733 185.963 18.64 187.776 18.64C188.949 18.64 190.029 18.72 191.016 18.88C192.003 19.0133 192.789 19.16 193.376 19.32C193.989 19.4533 194.296 19.52 194.296 19.52L193.736 22.4C193.736 22.4 193.403 22.3467 192.736 22.24C192.096 22.1067 191.269 21.9867 190.256 21.88C189.243 21.7467 188.176 21.68 187.056 21.68C186.389 21.68 185.856 21.72 185.456 21.8C185.083 21.88 184.749 22.0133 184.456 22.2C184.109 22.3867 183.776 22.7733 183.456 23.36C183.163 23.92 183.016 24.6933 183.016 25.68C183.016 26.7733 183.296 27.6667 183.856 28.36C184.416 29.0533 185.149 29.6267 186.056 30.08C186.963 30.5067 187.923 30.9333 188.936 31.36C190.003 31.7867 191.029 32.3067 192.016 32.92C193.003 33.5067 193.816 34.3067 194.456 35.32C195.096 36.3333 195.416 37.7067 195.416 39.44C195.416 41.0667 195.056 42.4933 194.336 43.72C193.643 44.92 192.669 45.8667 191.416 46.56C190.163 47.2267 188.709 47.56 187.056 47.56ZM206.086 47.52C204.219 47.52 202.699 46.88 201.526 45.6C200.379 44.32 199.806 42.4933 199.806 40.12C199.806 38.2267 200.179 36.7467 200.926 35.68C201.699 34.5867 202.779 33.8133 204.166 33.36C205.552 32.9067 207.166 32.68 209.006 32.68H213.246C213.246 31.3467 213.206 30.1867 213.126 29.2C213.072 28.1867 212.859 27.44 212.486 26.96C212.219 26.5867 211.846 26.3467 211.366 26.24C210.912 26.1333 210.432 26.08 209.926 26.08C208.886 26.08 207.859 26.1867 206.846 26.4C205.859 26.5867 204.952 26.8133 204.126 27.08C203.326 27.3467 202.686 27.5867 202.206 27.8C201.726 27.9867 201.486 28.08 201.486 28.08L200.326 25.48C200.326 25.48 200.579 25.3733 201.086 25.16C201.592 24.92 202.272 24.6533 203.126 24.36C203.979 24.04 204.926 23.7733 205.966 23.56C207.032 23.32 208.126 23.2 209.246 23.2C211.059 23.2 212.499 23.56 213.566 24.28C214.632 24.9733 215.392 25.96 215.846 27.24C216.326 28.4933 216.566 29.9733 216.566 31.68V47H214.406L213.926 44.56H213.686C213.312 44.8267 212.752 45.2 212.006 45.68C211.286 46.1333 210.419 46.56 209.406 46.96C208.392 47.3333 207.286 47.52 206.086 47.52ZM206.646 44.6C207.606 44.6 208.512 44.4667 209.366 44.2C210.246 43.9067 211.019 43.5867 211.686 43.24C212.379 42.8933 212.899 42.6133 213.246 42.4V35.76C212.899 35.7067 212.379 35.6533 211.686 35.6C210.992 35.52 210.086 35.48 208.966 35.48C206.486 35.48 204.952 35.7333 204.366 36.24C204.019 36.5067 203.752 36.9867 203.566 37.68C203.379 38.3467 203.286 39.16 203.286 40.12C203.286 41.6933 203.539 42.84 204.046 43.56C204.579 44.2533 205.446 44.6 206.646 44.6ZM227.739 47L220.979 23.72H224.539L229.779 44.16H230.019L235.219 23.72H238.779L232.059 47H227.739ZM250.885 47.52C248.671 47.52 246.925 47.0267 245.645 46.04C244.391 45.0533 243.498 43.6533 242.965 41.84C242.431 40.0267 242.165 37.8667 242.165 35.36C242.165 32.8533 242.431 30.6933 242.965 28.88C243.498 27.0667 244.391 25.6667 245.645 24.68C246.925 23.6933 248.671 23.2 250.885 23.2C253.098 23.2 254.831 23.6933 256.085 24.68C257.365 25.6667 258.271 27.0667 258.805 28.88C259.338 30.6933 259.605 32.8533 259.605 35.36C259.605 37.8667 259.338 40.0267 258.805 41.84C258.271 43.6533 257.365 45.0533 256.085 46.04C254.831 47.0267 253.098 47.52 250.885 47.52ZM250.885 44.64C251.898 44.64 252.738 44.52 253.405 44.28C254.098 44.04 254.645 43.6 255.045 42.96C255.471 42.32 255.765 41.3867 255.925 40.16C256.111 38.9333 256.205 37.3333 256.205 35.36C256.205 33.3867 256.111 31.7867 255.925 30.56C255.765 29.3333 255.471 28.4 255.045 27.76C254.645 27.0933 254.098 26.6533 253.405 26.44C252.738 26.2 251.898 26.08 250.885 26.08C249.871 26.08 249.018 26.2 248.325 26.44C247.658 26.6533 247.111 27.0933 246.685 27.76C246.285 28.4 245.991 29.3333 245.805 30.56C245.618 31.7867 245.525 33.3867 245.525 35.36C245.525 37.3333 245.618 38.9333 245.805 40.16C245.991 41.3867 246.285 42.32 246.685 42.96C247.111 43.6 247.658 44.04 248.325 44.28C249.018 44.52 249.871 44.64 250.885 44.64ZM266.451 47V23.72H268.571L269.011 26.08H269.251C269.251 26.08 269.451 25.9333 269.851 25.64C270.278 25.3467 270.825 25.0133 271.491 24.64C272.158 24.2667 272.865 23.9333 273.611 23.64C274.385 23.3467 275.105 23.2 275.771 23.2C276.171 23.2 276.545 23.24 276.891 23.32C277.238 23.3733 277.411 23.4 277.411 23.4L277.131 26.6C277.131 26.6 276.958 26.5867 276.611 26.56C276.265 26.5333 275.945 26.52 275.651 26.52C274.905 26.52 274.145 26.6267 273.371 26.84C272.625 27.0533 271.931 27.32 271.291 27.64C270.651 27.96 270.145 28.2667 269.771 28.56V47H266.451Z" fill="black"/>
</svg>
