<svg width="37" height="36" viewBox="0 0 37 36" fill="none" xmlns="http://www.w3.org/2000/svg">
<path d="M35.7391 13.063L24.9078 11.4889L20.066 1.67293C19.9337 1.40417 19.7162 1.18661 19.4474 1.05437C18.7734 0.721622 17.9543 0.998909 17.6173 1.67293L12.7754 11.4889L1.94418 13.063C1.64557 13.1057 1.37254 13.2465 1.16351 13.4598C0.910804 13.7195 0.77155 14.0689 0.77635 14.4313C0.781149 14.7937 0.929609 15.1393 1.18911 15.3922L9.02567 23.0326L7.17425 33.8212C7.13083 34.0721 7.1586 34.3302 7.25441 34.5662C7.35022 34.8022 7.51024 35.0066 7.71631 35.1563C7.92239 35.306 8.16628 35.3949 8.42033 35.413C8.67438 35.4312 8.92842 35.3777 9.15365 35.2588L18.8416 30.1652L28.5296 35.2588C28.7941 35.3996 29.1013 35.4465 29.3956 35.3953C30.1379 35.2673 30.637 34.5634 30.509 33.8212L28.6576 23.0326L36.4942 15.3922C36.7075 15.1832 36.8482 14.9102 36.8909 14.6116C37.0061 13.865 36.4856 13.1739 35.7391 13.063Z" fill="#FDA202"/>
</svg>
